<svg width="171" height="73" viewBox="0 0 171 73" fill="none" xmlns="http://www.w3.org/2000/svg">
<path d="M63.1723 36.3605C61.2095 37.6058 59.2467 38.5743 57.284 39.262C55.3212 39.9518 53.5786 40.2966 52.0541 40.2966C50.4298 40.2966 49.1857 39.927 48.3238 39.1856C47.4597 38.4463 47.0298 37.3848 47.0298 36.0053C47.0298 34.8282 47.3517 33.5313 47.9935 32.1188L57.3338 10.8191L70.2279 40.0943H64.7965L63.1723 36.3585V36.3605ZM54.8476 17.4316C53.6617 20.1906 52.7582 22.6977 52.1309 24.9528C51.5037 27.2079 51.1921 29.1925 51.1921 30.9086C51.1921 33.0956 51.674 34.7621 52.6398 35.9062C53.6035 37.0503 55.0013 37.6223 56.827 37.6223C57.7077 37.6223 58.688 37.4798 59.7722 37.1928C60.8543 36.9078 61.9365 36.5113 63.0207 36.0074L54.8476 17.4316Z" fill="#A44819"/>
<path d="M78.3529 25.0539C78.8265 23.7074 79.622 22.6398 80.7394 21.8488C81.8569 21.0579 83.0407 20.6614 84.2932 20.6614C85.4771 20.6614 86.3494 20.9815 86.9081 21.6196C87.4668 22.2598 87.7452 22.9661 87.7452 23.7405C87.7452 24.4467 87.5084 25.0952 87.0348 25.6838C86.5613 26.2723 85.8489 26.5676 84.9038 26.5676C84.0232 26.5676 83.3461 26.3074 82.8725 25.7849C82.3989 25.2645 82.1622 24.6842 82.1622 24.044C82.1622 23.2696 82.4675 22.6315 83.0761 22.1255C81.7551 21.822 80.6397 22.2102 79.7258 23.2861C78.812 24.3641 78.355 25.8779 78.355 27.8294V40.0942H73.2788V20.9133H75.8169C77.5097 20.9133 78.355 21.4854 78.355 22.6294V25.0518L78.3529 25.0539Z" fill="#A44819"/>
<path d="M99.2166 40.0964V34.6444C98.8781 36.3275 98.0909 37.6987 96.8571 38.7582C95.6213 39.8176 94.1737 40.3483 92.5162 40.3483C91.0955 40.3483 89.9532 39.9456 89.0891 39.1361C88.2272 38.3286 87.7952 37.2176 87.7952 35.805C87.7952 34.7291 88.0652 33.744 88.6073 32.8519C89.1494 31.9618 89.9179 31.1957 90.9169 30.5555C91.9139 29.9174 93.1165 29.4279 94.5205 29.0913C95.9246 28.7547 97.4906 28.5874 99.2166 28.5874V27.1233C99.2166 25.5083 98.8448 24.3044 98.0992 23.5134C97.3536 22.7225 96.153 22.326 94.4956 22.326C93.6232 22.326 92.6491 22.423 91.5712 22.6151C91.1703 22.6874 91.0021 22.1236 91.378 21.9687C91.997 21.7147 92.6138 21.4979 93.2265 21.3161C94.7158 20.8783 96.1032 20.6594 97.3889 20.6594C99.4202 20.6594 101.078 21.1571 102.363 22.1484C103.649 23.1417 104.293 24.5811 104.293 26.4645V40.0922H99.2166V40.0964ZM99.2166 28.891C97.9995 28.891 96.9652 29.05 96.1198 29.3701C95.2745 29.6902 94.5787 30.095 94.0386 30.5823C93.4966 31.0697 93.0998 31.6252 92.8444 32.2489C92.591 32.8726 92.4643 33.4859 92.4643 34.091C92.4643 35.0327 92.7343 35.8567 93.2764 36.565C93.8185 37.2713 94.5621 37.6244 95.5092 37.6244C96.5913 37.6244 97.4803 37.1701 98.174 36.2614C98.8677 35.3528 99.2145 34.1922 99.2145 32.7796V28.8931L99.2166 28.891Z" fill="#A44819"/>
<path d="M113.432 23.9945C114.412 22.8174 115.361 21.9665 116.273 21.4461C117.187 20.9257 118.202 20.6634 119.32 20.6634C121.453 20.6634 123.154 21.5225 124.423 23.2386C125.692 24.9548 126.328 27.3111 126.328 30.3055C126.328 31.9535 126.132 33.4011 125.744 34.6464C125.354 35.8916 124.811 36.9345 124.12 37.775C123.426 38.6155 122.614 39.2557 121.683 39.6935C120.753 40.1313 119.746 40.3502 118.664 40.3502C117.376 40.3502 116.277 40.0301 115.363 39.392C114.449 38.7539 113.805 37.7255 113.434 36.3129V37.5747C113.434 39.2578 112.586 40.0983 110.896 40.0983H108.357V11.325H110.896C112.588 11.325 113.434 12.1655 113.434 13.8485V23.9945H113.432ZM117.137 39.0368C118.389 39.0368 119.386 38.3388 120.132 36.9428C120.876 35.5468 121.249 33.4858 121.249 30.7598C121.249 28.0339 120.869 25.8138 120.107 24.3992C119.345 22.9867 118.373 22.2784 117.189 22.2784C116.005 22.2784 114.753 22.9516 113.432 24.298V33.938C113.432 35.553 113.795 36.8065 114.522 37.6986C115.249 38.5908 116.121 39.0368 117.137 39.0368Z" fill="#A44819"/>
<path d="M129.117 15.0587C129.117 14.2513 129.371 13.5946 129.879 13.0907C130.386 12.5868 131.063 12.3328 131.911 12.3328C132.758 12.3328 133.433 12.5847 133.942 13.0907C134.449 13.5946 134.704 14.2513 134.704 15.0587C134.704 15.8662 134.451 16.5725 133.942 17.0784C133.435 17.5823 132.756 17.8363 131.911 17.8363C131.065 17.8363 130.388 17.5844 129.879 17.0784C129.371 16.5745 129.117 15.9013 129.117 15.0587ZM134.447 40.0942H129.371V20.9133H131.909C133.601 20.9133 134.447 21.7539 134.447 23.4369V40.0942Z" fill="#A44819"/>
<path d="M148.103 22.2266C146.377 22.2266 145.031 22.9577 144.067 24.4219C143.104 25.886 142.62 27.8975 142.62 30.4541C142.62 33.0107 143.118 35.1233 144.117 36.5875C145.114 38.0517 146.493 38.7827 148.255 38.7827C150.016 38.7827 151.723 38.0434 153.485 36.5627C152.807 37.7749 151.877 38.7084 150.693 39.3651C149.507 40.0218 148.103 40.3501 146.479 40.3501C143.737 40.3501 141.554 39.4663 139.93 37.7006C138.306 35.9349 137.494 33.5538 137.494 30.5573C137.494 29.0766 137.706 27.7219 138.129 26.4932C138.553 25.2644 139.153 24.2215 139.932 23.3624C140.711 22.5054 141.641 21.8404 142.724 21.3696C143.806 20.8988 145.008 20.6633 146.327 20.6633C147.951 20.6633 149.347 21.0165 150.516 21.7227C151.684 22.429 152.589 23.4223 153.231 24.7006C152.521 23.9262 151.717 23.3211 150.82 22.8833C149.922 22.4455 149.017 22.2266 148.103 22.2266Z" fill="#A44819"/>
<path d="M165.922 39.7577V36.7137C165.922 36.3502 165.433 36.247 165.271 36.5712C164.856 37.4076 164.285 38.1366 163.56 38.7582C162.324 39.8176 160.877 40.3483 159.219 40.3483C157.798 40.3483 156.656 39.9456 155.792 39.1361C154.93 38.3286 154.498 37.2176 154.498 35.805C154.498 34.7291 154.768 33.744 155.31 32.8519C155.852 31.9618 156.621 31.1957 157.62 30.5555C158.617 29.9174 159.819 29.4279 161.223 29.0913C162.536 28.7774 163.988 28.6101 165.581 28.5895C165.768 28.5874 165.92 28.4387 165.92 28.2529V27.1233C165.92 25.5083 165.548 24.3044 164.802 23.5134C164.056 22.7225 162.856 22.326 161.198 22.326C160.326 22.326 159.352 22.423 158.274 22.6151C157.873 22.6874 157.705 22.1236 158.081 21.9687C158.7 21.7147 159.317 21.4979 159.929 21.3161C161.419 20.8783 162.806 20.6594 164.092 20.6594C166.123 20.6594 167.781 21.1571 169.066 22.1484C170.352 23.1417 170.996 24.5811 170.996 26.4645V39.7535C170.996 39.9415 170.844 40.0922 170.655 40.0922H166.26C166.071 40.0922 165.92 39.9415 165.92 39.7535L165.922 39.7577ZM165.922 29.2359C165.922 29.0459 165.764 28.891 165.573 28.8951C164.505 28.924 163.589 29.081 162.825 29.3701C161.979 29.6902 161.284 30.095 160.744 30.5823C160.202 31.0697 159.805 31.6252 159.549 32.2489C159.296 32.8726 159.169 33.4859 159.169 34.091C159.169 35.0327 159.439 35.8567 159.981 36.565C160.523 37.2713 161.267 37.6244 162.214 37.6244C163.296 37.6244 164.185 37.1701 164.879 36.2614C165.573 35.3528 165.92 34.1922 165.92 32.7796V29.2379L165.922 29.2359Z" fill="#A44819"/>
<path d="M64.3686 72.6983H48.3818V44.115H53.4248V72.3968L64.3686 70.691V72.6963V72.6983Z" fill="#A44819"/>
<path d="M77.7341 72.6983V67.2836C77.3977 68.9563 76.6167 70.3172 75.3892 71.3704C74.1617 72.4237 72.7244 72.9503 71.0773 72.9503C69.665 72.9503 68.5309 72.5496 67.6731 71.7463C66.8153 70.945 66.3875 69.8402 66.3875 68.4359C66.3875 67.3662 66.6554 66.3894 67.1933 65.5034C67.7313 64.6175 68.4956 63.8575 69.4884 63.2215C70.4792 62.5875 71.6734 62.1022 73.0692 61.7676C74.4649 61.4331 76.0185 61.2658 77.7341 61.2658V59.812C77.7341 58.2074 77.3624 57.0116 76.625 56.2269C75.8856 55.4422 74.6913 55.0477 73.0443 55.0477C72.0016 55.0477 70.8136 55.1861 69.478 55.4628C69.1665 55.5268 69.0294 55.0932 69.3202 54.963C70.1468 54.5913 70.9672 54.2857 71.7835 54.0461C73.2623 53.6125 74.6415 53.3936 75.9188 53.3936C77.9377 53.3936 79.5827 53.8871 80.8621 54.8722C82.1395 55.8593 82.7771 57.2884 82.7771 59.1594V72.6983H77.7341ZM77.7341 61.5652C76.5232 61.5652 75.4972 61.7243 74.6581 62.0423C73.8169 62.3603 73.1273 62.7609 72.5894 63.2462C72.0514 63.7316 71.6568 64.2829 71.4055 64.9004C71.1521 65.52 71.0275 66.1292 71.0275 66.7301C71.0275 67.6656 71.2954 68.4855 71.8334 69.1876C72.3713 69.8897 73.1107 70.2408 74.0516 70.2408C75.1275 70.2408 76.0102 69.7886 76.6998 68.8861C77.3894 67.9836 77.7341 66.8313 77.7341 65.427V61.5652Z" fill="#A44819"/>
<path d="M91.8557 47.1733V53.6413H95.3866V55.6465L91.8557 53.8912V67.8824C91.8557 70.3564 93.3699 71.5934 96.3961 71.5934C95.8228 72.0292 95.1519 72.3616 94.3793 72.5971C93.6046 72.8304 92.7821 72.9481 91.9076 72.9481C90.2938 72.9481 89.0414 72.5062 88.1503 71.6203C87.2593 70.7343 86.8127 69.4725 86.8127 67.8349V49.6825C86.8127 48.0118 87.6519 47.1754 89.3342 47.1754H91.8557V47.1733Z" fill="#A44819"/>
<path d="M98.6641 47.826C98.6641 47.0248 98.9154 46.3722 99.4201 45.8704C99.9248 45.3685 100.596 45.1187 101.437 45.1187C102.278 45.1187 102.951 45.3685 103.454 45.8704C103.958 46.3722 104.21 47.0248 104.21 47.826C104.21 48.6273 103.956 49.3315 103.454 49.8313C102.949 50.3331 102.276 50.583 101.437 50.583C100.598 50.583 99.9227 50.3331 99.4201 49.8313C98.9154 49.3294 98.6641 48.6624 98.6641 47.826ZM103.958 72.6984H98.9154V53.6435H101.437C103.117 53.6435 103.958 54.4799 103.958 56.1505V72.6984Z" fill="#A44819"/>
<path d="M113.037 58.4057C113.743 56.7681 114.676 55.5228 115.837 54.6699C116.996 53.817 118.333 53.3916 119.845 53.3916C121.561 53.3916 122.921 53.9182 123.931 54.9714C124.938 56.0246 125.445 57.4207 125.445 59.1595V72.6984H120.402V58.7072C120.402 57.7387 120.149 56.9601 119.646 56.3757C119.141 55.7913 118.468 55.498 117.629 55.498C116.79 55.498 115.905 55.7995 115.083 56.4005C114.258 57.0014 113.577 57.8213 113.041 58.858V72.6984H107.998V53.6435H110.52C112.2 53.6435 113.041 54.4799 113.041 56.1506V58.4078L113.037 58.4057Z" fill="#A44819"/>
<path d="M139.816 72.6983V67.2836C139.479 68.9563 138.698 70.3172 137.471 71.3704C136.243 72.4237 134.806 72.9503 133.159 72.9503C131.747 72.9503 130.613 72.5496 129.755 71.7463C128.897 70.945 128.469 69.8402 128.469 68.4359C128.469 67.3662 128.737 66.3894 129.275 65.5034C129.813 64.6175 130.577 63.8575 131.57 63.2215C132.561 62.5875 133.755 62.1022 135.151 61.7676C136.547 61.4331 138.1 61.2658 139.816 61.2658V59.812C139.816 58.2074 139.444 57.0116 138.707 56.2269C137.967 55.4422 136.773 55.0477 135.126 55.0477C134.083 55.0477 132.895 55.1861 131.56 55.4628C131.248 55.5268 131.111 55.0932 131.402 54.963C132.229 54.5913 133.049 54.2857 133.865 54.0461C135.344 53.6125 136.723 53.3936 138.001 53.3936C140.019 53.3936 141.664 53.8871 142.944 54.8722C144.221 55.8593 144.859 57.2884 144.859 59.1594V72.6983H139.816ZM139.816 61.5652C138.605 61.5652 137.579 61.7243 136.74 62.0423C135.899 62.3603 135.209 62.7609 134.671 63.2462C134.133 63.7316 133.739 64.2829 133.487 64.9004C133.234 65.52 133.109 66.1292 133.109 66.7301C133.109 67.6656 133.377 68.4855 133.915 69.1876C134.453 69.8897 135.193 70.2408 136.133 70.2408C137.209 70.2408 138.092 69.7886 138.782 68.8861C139.471 67.9836 139.816 66.8313 139.816 65.427V61.5652Z" fill="#A44819"/>
<path d="M0 13.3527C0.137082 13.0099 0.247164 12.6547 0.413324 12.3243C0.926345 11.302 1.73015 10.5792 2.7915 10.1559C4.02109 9.66646 5.00559 8.8879 5.81354 7.84295C6.80428 6.56051 7.61431 5.99054 9.08691 5.40817C8.94152 5.05504 8.77328 4.7081 8.65489 4.34464C8.41396 3.60326 8.1751 2.85981 7.98402 2.10604C7.90509 1.79627 7.90717 1.44933 7.95078 1.12717C8.06917 0.226782 8.6902 -0.175917 9.57085 0.0718974C9.88448 0.158633 10.2043 0.280475 10.4723 0.462206C12.3146 1.70747 14.0219 3.1035 15.3366 4.91874C16.668 6.75463 17.2786 8.86312 17.6296 11.0583C18.2361 14.8561 18.1904 18.6601 17.6712 22.464C17.3659 24.6985 17.6276 26.8194 18.8364 28.7874C19.3577 29.6362 19.7752 30.549 20.2467 31.4473C20.5811 31.0467 20.8905 30.6336 21.2436 30.2619C23.2376 28.1555 25.9564 27.6062 28.86 28.7172C31.7117 29.8097 33.5291 31.9078 34.6299 34.6792C35.7204 37.4258 36.3705 40.2902 36.8669 43.1896C37.4671 46.6982 37.7018 50.2399 37.6831 53.794C37.6561 58.8866 37.1369 63.9379 36.2625 68.9561C36.169 69.4951 36.1254 70.0424 36.0298 70.5793C35.9218 71.1906 35.6311 71.6862 35.062 72.0022C34.6777 72.2149 34.3205 72.473 33.9466 72.7022C33.3567 73.0636 32.8167 72.8034 32.7378 72.1116C32.5737 70.6516 32.4283 69.1874 32.2663 67.7274C31.9028 64.448 31.5456 61.1685 31.1655 57.8912C30.9246 55.8095 30.6836 53.7258 30.3638 51.6566C30.2288 50.7851 29.9255 49.9343 29.6285 49.0979C29.5039 48.7468 29.2276 48.4288 28.9597 48.1521C28.6378 47.8217 28.4114 47.8464 28.2494 48.276C27.8568 49.3106 27.3999 50.3452 27.2026 51.4232C26.6418 54.4817 26.0976 57.5484 25.7445 60.6357C25.5098 62.6781 25.6074 64.7598 25.57 66.8228C25.5368 68.6216 25.5285 70.4203 25.487 72.2169C25.4724 72.8262 25.246 73.012 24.6271 72.9996C22.9945 72.9666 21.3599 72.9232 19.7274 72.8757C19.2663 72.8613 19.0067 72.6011 18.9693 72.1447C18.9568 72.0042 18.9693 71.8638 18.9652 71.7213C18.9028 68.1714 18.9568 64.6152 18.7408 61.0735C18.556 58.0213 18.099 54.9794 17.2579 52.018C17.0626 51.3303 16.7968 50.6633 16.1404 50.0933C16.0407 51.2023 15.9203 52.2183 15.8663 53.2364C15.6336 57.6392 15.4031 62.0421 15.2058 66.447C15.1227 68.2891 15.1268 70.1374 15.0957 71.9815C15.0832 72.7807 14.6055 73.043 13.8786 72.7167C13.0581 72.347 12.6344 71.7523 12.3353 70.9077C11.3467 68.1197 10.9001 65.2141 10.3103 62.3395C9.65393 59.1406 8.99967 55.9396 8.37657 52.7325C7.79916 49.7629 7.54369 46.756 7.40868 43.7389C7.1906 38.8136 7.24668 33.8883 7.552 28.9692C7.74308 25.8963 8.05256 22.8295 8.31011 19.7608C8.32257 19.6224 8.3288 19.484 8.33711 19.3354C7.40245 19.1227 6.46572 18.9843 5.58092 18.691C4.51541 18.3358 3.46237 17.9084 2.46333 17.4024C1.28359 16.8035 0.42994 15.8577 0.00415401 14.5773C0.00415401 14.1705 0.00415401 13.7637 0.00415401 13.3568L0 13.3527ZM13.5089 69.9474C13.6002 69.9391 13.6896 69.9309 13.7809 69.9226C13.7809 68.3118 13.7186 66.6989 13.7934 65.0923C13.9783 61.1727 14.2005 57.2531 14.456 53.3376C14.6886 49.7794 15.0313 46.2315 15.9369 42.7642C16.7905 39.4951 17.7127 36.2528 19.2393 33.213C19.3058 33.0787 19.2725 32.8454 19.1999 32.7008C18.6619 31.6063 18.1489 30.4973 17.5424 29.44C16.5413 27.695 16.0137 25.8405 16.1259 23.8353C16.1986 22.5425 16.4499 21.258 16.4894 19.9652C16.5517 17.8733 16.5766 15.7751 16.4873 13.6852C16.4021 11.682 16.0594 9.70363 15.2888 7.83056C14.1756 5.12112 12.0965 3.27697 9.70585 1.71986C9.63524 1.67443 9.53969 1.66617 9.37769 1.61454C9.45246 1.96355 9.47738 2.26299 9.57916 2.53352C9.96133 3.55782 10.356 4.57593 10.7672 5.5899C11.0642 6.32096 10.7963 6.77941 10.0278 6.77528C9.38392 6.77322 8.80028 6.96734 8.33503 7.38037C7.76178 7.88632 7.21968 8.43564 6.7212 9.01388C5.78239 10.1001 4.71273 10.9861 3.34814 11.4941C3.11551 11.5808 2.88081 11.6944 2.68557 11.8452C1.44767 12.8054 0.745646 14.3873 2.49864 15.6987C3.42914 16.3946 4.45726 16.8964 5.57053 17.1897C6.73573 17.4974 7.92378 17.7184 9.10768 17.9559C9.67054 18.0694 9.91563 18.3255 9.86578 18.8253C9.68093 20.7396 9.44 22.6519 9.33199 24.5704C9.09521 28.7688 8.87713 32.9693 8.74835 37.1718C8.67981 39.4042 8.78574 41.6449 8.86259 43.8793C8.96021 46.7416 9.22607 49.5935 9.7744 52.4062C10.6488 56.8855 11.5461 61.3585 12.4704 65.8275C12.757 67.2132 13.162 68.5741 13.513 69.9474H13.5089ZM34.0484 70.854C34.5822 70.7734 34.5614 70.3604 34.6092 70.0217C35.0391 67.0356 35.5127 64.0556 35.8658 61.0612C36.2895 57.4678 36.3393 53.8518 36.1711 50.2378C35.9634 45.7854 35.28 41.4095 33.9528 37.1429C33.3007 35.0447 32.4408 33.056 30.7812 31.5278C29.0719 29.9542 27.08 29.2727 24.7558 29.7807C23.0319 30.1566 22.0038 31.3853 21.1481 32.7938C21.0484 32.9569 21.0359 33.2336 21.092 33.4236C21.4679 34.6627 21.9498 35.8749 22.2572 37.1305C23.0942 40.5627 23.2646 44.092 23.5512 47.5924C23.7381 49.8785 23.6467 52.1873 23.6737 54.4858C23.7277 59.1571 23.2646 63.7933 22.6747 68.4192C22.5459 69.4228 22.4421 70.4306 22.3195 71.5003H24.1286C24.1286 70.0899 24.1224 68.6835 24.1286 67.2792C24.139 65.402 24.0517 63.5166 24.2054 61.6497C24.5128 57.8933 25.0632 54.1636 25.9564 50.4981C26.2098 49.4593 26.5774 48.4288 27.0385 47.4623C27.5411 46.4091 28.6108 46.1675 29.5787 46.8304C30.0044 47.1216 30.3721 47.5491 30.6504 47.9848C31.3026 49.0008 31.612 50.1594 31.7761 51.3406C32.069 53.447 32.3265 55.5576 32.5716 57.6682C32.9496 60.929 33.3069 64.1939 33.6704 67.4568C33.7971 68.5865 33.9196 69.7181 34.0421 70.8519L34.0484 70.854ZM20.1532 34.9064C20.1117 34.9126 20.068 34.9188 20.0265 34.925C19.9247 35.1521 19.8167 35.3752 19.7233 35.6044C18.0783 39.5694 17.1125 43.7141 16.4125 47.9311C16.3398 48.373 16.3523 48.6828 16.8445 48.8852C17.1145 48.9967 17.3804 49.2548 17.5237 49.5151C17.9453 50.275 18.4189 51.035 18.6702 51.8569C19.5571 54.7543 19.9102 57.7632 20.1553 60.7638C20.3775 63.4856 20.3256 66.2302 20.3921 68.9644C20.4087 69.683 20.4066 70.4038 20.4357 71.1224C20.4398 71.2257 20.5603 71.3248 20.6268 71.426C20.7265 71.3351 20.8448 71.2587 20.9175 71.1493C20.9632 71.0811 20.9362 70.9675 20.9466 70.8725C21.1169 69.3031 21.2478 67.7274 21.4659 66.1641C21.9644 62.5976 22.2219 59.0187 22.2551 55.4172C22.2884 51.9292 22.3465 48.4433 21.8875 44.9739C21.5739 42.6052 21.3018 40.2282 20.9321 37.8678C20.7763 36.8641 20.4211 35.8914 20.1574 34.9043L20.1532 34.9064Z" fill="#A44819"/>
</svg>
