<svg width="171" height="73" viewBox="0 0 171 73" fill="none" xmlns="http://www.w3.org/2000/svg">
<g clip-path="url(#clip0_524_4806)">
<path d="M63.1723 36.3586C61.2095 37.6038 59.2467 38.5724 57.284 39.2601C55.3212 39.9498 53.5786 40.2947 52.0541 40.2947C50.4298 40.2947 49.1857 39.925 48.3238 39.1837C47.4597 38.4443 47.0298 37.3829 47.0298 36.0034C47.0298 34.8262 47.3517 33.5294 47.9935 32.1168L57.3338 10.8171L70.2279 40.0923H64.7965L63.1723 36.3565V36.3586ZM54.8476 17.4297C53.6617 20.1887 52.7582 22.6957 52.1309 24.9508C51.5037 27.2059 51.1921 29.1905 51.1921 30.9066C51.1921 33.0936 51.674 34.7602 52.6398 35.9042C53.6035 37.0483 55.0013 37.6204 56.827 37.6204C57.7077 37.6204 58.688 37.4779 59.7722 37.1908C60.8543 36.9058 61.9365 36.5093 63.0207 36.0054L54.8476 17.4297Z" fill="#A44819" fill-opacity="0.5"/>
<path d="M78.3529 25.0519C78.8265 23.7055 79.622 22.6378 80.7394 21.8469C81.8569 21.0559 83.0407 20.6594 84.2932 20.6594C85.4771 20.6594 86.3494 20.9795 86.9081 21.6176C87.4668 22.2578 87.7452 22.9641 87.7452 23.7385C87.7452 24.4448 87.5084 25.0932 87.0348 25.6818C86.5613 26.2704 85.8489 26.5657 84.9038 26.5657C84.0232 26.5657 83.3461 26.3055 82.8725 25.783C82.3989 25.2626 82.1622 24.6823 82.1622 24.0421C82.1622 23.2677 82.4675 22.6295 83.0761 22.1236C81.7551 21.82 80.6397 22.2083 79.7258 23.2842C78.812 24.3622 78.355 25.8759 78.355 27.8275V40.0922H73.2788V20.9114H75.8169C77.5097 20.9114 78.355 21.4834 78.355 22.6275V25.0499L78.3529 25.0519Z" fill="#A44819" fill-opacity="0.5"/>
<path d="M99.2166 40.0944V34.6425C98.8781 36.3256 98.0909 37.6968 96.8571 38.7562C95.6213 39.8156 94.1737 40.3463 92.5162 40.3463C91.0955 40.3463 89.9532 39.9436 89.0891 39.1341C88.2272 38.3267 87.7952 37.2156 87.7952 35.8031C87.7952 34.7271 88.0652 33.7421 88.6073 32.85C89.1494 31.9599 89.9179 31.1937 90.9169 30.5535C91.9139 29.9154 93.1165 29.426 94.5205 29.0894C95.9246 28.7527 97.4906 28.5855 99.2166 28.5855V27.1213C99.2166 25.5064 98.8448 24.3024 98.0992 23.5115C97.3536 22.7205 96.153 22.324 94.4956 22.324C93.6232 22.324 92.6491 22.4211 91.5712 22.6131C91.1703 22.6854 91.0021 22.1216 91.378 21.9668C91.997 21.7127 92.6138 21.4959 93.2265 21.3142C94.7158 20.8764 96.1032 20.6575 97.3889 20.6575C99.4202 20.6575 101.078 21.1552 102.363 22.1464C103.649 23.1397 104.293 24.5791 104.293 26.4625V40.0903H99.2166V40.0944ZM99.2166 28.889C97.9995 28.889 96.9652 29.0481 96.1198 29.3682C95.2745 29.6883 94.5787 30.093 94.0386 30.5804C93.4966 31.0678 93.0998 31.6233 92.8444 32.2469C92.591 32.8706 92.4643 33.4839 92.4643 34.089C92.4643 35.0307 92.7343 35.8547 93.2764 36.563C93.8185 37.2693 94.5621 37.6224 95.5092 37.6224C96.5913 37.6224 97.4803 37.1681 98.174 36.2595C98.8677 35.3508 99.2145 34.1902 99.2145 32.7777V28.8911L99.2166 28.889Z" fill="#A44819" fill-opacity="0.5"/>
<path d="M113.432 23.9925C114.412 22.8154 115.361 21.9646 116.273 21.4442C117.187 20.9237 118.202 20.6615 119.32 20.6615C121.453 20.6615 123.154 21.5206 124.423 23.2367C125.692 24.9528 126.328 27.3091 126.328 30.3035C126.328 31.9515 126.132 33.3992 125.744 34.6444C125.354 35.8897 124.811 36.9326 124.12 37.7731C123.426 38.6136 122.614 39.2538 121.683 39.6916C120.753 40.1294 119.746 40.3483 118.664 40.3483C117.376 40.3483 116.277 40.0282 115.363 39.3901C114.449 38.752 113.805 37.7235 113.434 36.311V37.5728C113.434 39.2558 112.586 40.0963 110.896 40.0963H108.357V11.323H110.896C112.588 11.323 113.434 12.1635 113.434 13.8466V23.9925H113.432ZM117.137 39.0349C118.389 39.0349 119.386 38.3369 120.132 36.9408C120.876 35.5448 121.249 33.4838 121.249 30.7579C121.249 28.0319 120.869 25.8119 120.107 24.3973C119.345 22.9847 118.373 22.2764 117.189 22.2764C116.005 22.2764 114.753 22.9496 113.432 24.2961V33.9361C113.432 35.551 113.795 36.8045 114.522 37.6967C115.249 38.5888 116.121 39.0349 117.137 39.0349Z" fill="#A44819" fill-opacity="0.5"/>
<path d="M129.117 15.0568C129.117 14.2493 129.371 13.5926 129.879 13.0887C130.386 12.5848 131.063 12.3308 131.911 12.3308C132.758 12.3308 133.433 12.5828 133.942 13.0887C134.449 13.5926 134.704 14.2493 134.704 15.0568C134.704 15.8642 134.451 16.5705 133.942 17.0765C133.435 17.5804 132.756 17.8344 131.911 17.8344C131.065 17.8344 130.388 17.5824 129.879 17.0765C129.371 16.5726 129.117 15.8993 129.117 15.0568ZM134.447 40.0922H129.371V20.9114H131.909C133.601 20.9114 134.447 21.7519 134.447 23.435V40.0922Z" fill="#A44819" fill-opacity="0.5"/>
<path d="M148.103 22.2247C146.377 22.2247 145.031 22.9557 144.067 24.4199C143.104 25.8841 142.62 27.8955 142.62 30.4521C142.62 33.0087 143.118 35.1214 144.117 36.5855C145.114 38.0497 146.493 38.7808 148.255 38.7808C150.016 38.7808 151.723 38.0414 153.485 36.5608C152.807 37.773 151.877 38.7064 150.693 39.3631C149.507 40.0198 148.103 40.3482 146.479 40.3482C143.737 40.3482 141.554 39.4643 139.93 37.6986C138.306 35.933 137.494 33.5519 137.494 30.5554C137.494 29.0747 137.706 27.72 138.129 26.4912C138.553 25.2625 139.153 24.2196 139.932 23.3605C140.711 22.5035 141.641 21.8385 142.724 21.3676C143.806 20.8968 145.008 20.6614 146.327 20.6614C147.951 20.6614 149.347 21.0145 150.516 21.7208C151.684 22.4271 152.589 23.4204 153.231 24.6987C152.521 23.9243 151.717 23.3192 150.82 22.8814C149.922 22.4436 149.017 22.2247 148.103 22.2247Z" fill="#A44819" fill-opacity="0.5"/>
<path d="M165.922 39.7557V36.7117C165.922 36.3483 165.433 36.245 165.271 36.5692C164.856 37.4056 164.285 38.1346 163.56 38.7562C162.324 39.8156 160.877 40.3463 159.219 40.3463C157.798 40.3463 156.656 39.9436 155.792 39.1341C154.93 38.3267 154.498 37.2156 154.498 35.8031C154.498 34.7271 154.768 33.7421 155.31 32.85C155.852 31.9599 156.621 31.1937 157.62 30.5535C158.617 29.9154 159.819 29.426 161.223 29.0894C162.536 28.7755 163.988 28.6082 165.581 28.5875C165.768 28.5855 165.92 28.4368 165.92 28.2509V27.1213C165.92 25.5064 165.548 24.3024 164.802 23.5115C164.056 22.7205 162.856 22.324 161.198 22.324C160.326 22.324 159.352 22.4211 158.274 22.6131C157.873 22.6854 157.705 22.1216 158.081 21.9668C158.7 21.7127 159.317 21.4959 159.929 21.3142C161.419 20.8764 162.806 20.6575 164.092 20.6575C166.123 20.6575 167.781 21.1552 169.066 22.1464C170.352 23.1397 170.996 24.5791 170.996 26.4625V39.7516C170.996 39.9395 170.844 40.0903 170.655 40.0903H166.26C166.071 40.0903 165.92 39.9395 165.92 39.7516L165.922 39.7557ZM165.922 29.2339C165.922 29.0439 165.764 28.889 165.573 28.8932C164.505 28.9221 163.589 29.079 162.825 29.3682C161.979 29.6883 161.284 30.093 160.744 30.5804C160.202 31.0678 159.805 31.6233 159.549 32.2469C159.296 32.8706 159.169 33.4839 159.169 34.089C159.169 35.0307 159.439 35.8547 159.981 36.563C160.523 37.2693 161.267 37.6224 162.214 37.6224C163.296 37.6224 164.185 37.1681 164.879 36.2595C165.573 35.3508 165.92 34.1902 165.92 32.7777V29.236L165.922 29.2339Z" fill="#A44819" fill-opacity="0.5"/>
<path d="M64.3686 72.6964H48.3818V44.113H53.4248V72.3949L64.3686 70.6891V72.6943V72.6964Z" fill="#A44819" fill-opacity="0.5"/>
<path d="M77.7341 72.6964V67.2816C77.3977 68.9544 76.6167 70.3153 75.3892 71.3685C74.1617 72.4217 72.7244 72.9483 71.0773 72.9483C69.665 72.9483 68.5309 72.5477 67.6731 71.7443C66.8153 70.9431 66.3875 69.8382 66.3875 68.4339C66.3875 67.3642 66.6554 66.3874 67.1933 65.5015C67.7313 64.6155 68.4956 63.8556 69.4884 63.2195C70.4792 62.5855 71.6734 62.1002 73.0692 61.7657C74.4649 61.4311 76.0185 61.2638 77.7341 61.2638V59.81C77.7341 58.2054 77.3624 57.0097 76.625 56.2249C75.8856 55.4402 74.6913 55.0458 73.0443 55.0458C72.0016 55.0458 70.8136 55.1841 69.478 55.4609C69.1665 55.5249 69.0294 55.0912 69.3202 54.9611C70.1468 54.5894 70.9672 54.2837 71.7835 54.0442C73.2623 53.6105 74.6415 53.3916 75.9188 53.3916C77.9377 53.3916 79.5827 53.8852 80.8621 54.8702C82.1395 55.8574 82.7771 57.2864 82.7771 59.1574V72.6964H77.7341ZM77.7341 61.5633C76.5232 61.5633 75.4972 61.7223 74.6581 62.0403C73.8169 62.3584 73.1273 62.759 72.5894 63.2443C72.0514 63.7296 71.6568 64.281 71.4055 64.8985C71.1521 65.518 71.0275 66.1272 71.0275 66.7282C71.0275 67.6637 71.2954 68.4835 71.8334 69.1857C72.3713 69.8878 73.1107 70.2389 74.0516 70.2389C75.1275 70.2389 76.0102 69.7866 76.6998 68.8841C77.3894 67.9817 77.7341 66.8293 77.7341 65.4251V61.5633Z" fill="#A44819" fill-opacity="0.5"/>
<path d="M91.8557 47.1714V53.6393H95.3866V55.6446L91.8557 53.8892V67.8804C91.8557 70.3545 93.3699 71.5915 96.3961 71.5915C95.8228 72.0272 95.1519 72.3597 94.3793 72.5951C93.6046 72.8285 92.7821 72.9462 91.9076 72.9462C90.2938 72.9462 89.0414 72.5042 88.1503 71.6183C87.2593 70.7324 86.8127 69.4706 86.8127 67.8329V49.6805C86.8127 48.0098 87.6519 47.1735 89.3342 47.1735H91.8557V47.1714Z" fill="#A44819" fill-opacity="0.5"/>
<path d="M98.6641 47.8241C98.6641 47.0228 98.9154 46.3702 99.4201 45.8684C99.9248 45.3666 100.596 45.1167 101.437 45.1167C102.278 45.1167 102.951 45.3666 103.454 45.8684C103.958 46.3702 104.21 47.0228 104.21 47.8241C104.21 48.6253 103.956 49.3295 103.454 49.8293C102.949 50.3311 102.276 50.581 101.437 50.581C100.598 50.581 99.9227 50.3311 99.4201 49.8293C98.9154 49.3275 98.6641 48.6604 98.6641 47.8241ZM103.958 72.6964H98.9154V53.6415H101.437C103.117 53.6415 103.958 54.4779 103.958 56.1486V72.6964Z" fill="#A44819" fill-opacity="0.5"/>
<path d="M113.037 58.4038C113.743 56.7661 114.676 55.5209 115.837 54.668C116.996 53.8151 118.333 53.3896 119.845 53.3896C121.561 53.3896 122.921 53.9163 123.931 54.9695C124.938 56.0227 125.445 57.4187 125.445 59.1575V72.6965H120.402V58.7053C120.402 57.7367 120.149 56.9582 119.646 56.3738C119.141 55.7893 118.468 55.4961 117.629 55.4961C116.79 55.4961 115.905 55.7976 115.083 56.3985C114.258 56.9995 113.577 57.8193 113.041 58.856V72.6965H107.998V53.6416H110.52C112.2 53.6416 113.041 54.478 113.041 56.1487V58.4058L113.037 58.4038Z" fill="#A44819" fill-opacity="0.5"/>
<path d="M139.816 72.6964V67.2816C139.479 68.9544 138.698 70.3153 137.471 71.3685C136.243 72.4217 134.806 72.9483 133.159 72.9483C131.747 72.9483 130.613 72.5477 129.755 71.7443C128.897 70.9431 128.469 69.8382 128.469 68.4339C128.469 67.3642 128.737 66.3874 129.275 65.5015C129.813 64.6155 130.577 63.8556 131.57 63.2195C132.561 62.5855 133.755 62.1002 135.151 61.7657C136.547 61.4311 138.1 61.2638 139.816 61.2638V59.81C139.816 58.2054 139.444 57.0097 138.707 56.2249C137.967 55.4402 136.773 55.0458 135.126 55.0458C134.083 55.0458 132.895 55.1841 131.56 55.4609C131.248 55.5249 131.111 55.0912 131.402 54.9611C132.229 54.5894 133.049 54.2837 133.865 54.0442C135.344 53.6105 136.723 53.3916 138.001 53.3916C140.019 53.3916 141.664 53.8852 142.944 54.8702C144.221 55.8574 144.859 57.2864 144.859 59.1574V72.6964H139.816ZM139.816 61.5633C138.605 61.5633 137.579 61.7223 136.74 62.0403C135.899 62.3584 135.209 62.759 134.671 63.2443C134.133 63.7296 133.739 64.281 133.487 64.8985C133.234 65.518 133.109 66.1272 133.109 66.7282C133.109 67.6637 133.377 68.4835 133.915 69.1857C134.453 69.8878 135.193 70.2389 136.133 70.2389C137.209 70.2389 138.092 69.7866 138.782 68.8841C139.471 67.9817 139.816 66.8293 139.816 65.4251V61.5633Z" fill="#A44819" fill-opacity="0.5"/>
<path d="M0 13.3507C0.137082 13.0079 0.247164 12.6527 0.413324 12.3223C0.926345 11.3001 1.73015 10.5773 2.7915 10.1539C4.02109 9.6645 5.00559 8.88595 5.81354 7.841C6.80428 6.55856 7.61431 5.98858 9.08691 5.40622C8.94152 5.05308 8.77328 4.70614 8.65489 4.34268C8.41396 3.6013 8.1751 2.85786 7.98401 2.10409C7.90509 1.79432 7.90717 1.44738 7.95078 1.12522C8.06917 0.224828 8.6902 -0.17787 9.57085 0.0699443C9.88448 0.156679 10.2043 0.278522 10.4723 0.460252C12.3146 1.70552 14.0219 3.10154 15.3366 4.91679C16.668 6.75268 17.2786 8.86117 17.6296 11.0564C18.2361 14.8542 18.1904 18.6581 17.6712 22.4621C17.3659 24.6965 17.6276 26.8174 18.8364 28.7855C19.3577 29.6342 19.7752 30.547 20.2467 31.4453C20.5811 31.0447 20.8905 30.6317 21.2436 30.26C23.2376 28.1535 25.9564 27.6042 28.86 28.7153C31.7117 29.8077 33.5291 31.9059 34.6299 34.6773C35.7204 37.4239 36.3705 40.2882 36.8669 43.1876C37.4671 46.6963 37.7018 50.238 37.6831 53.792C37.6561 58.8846 37.1369 63.9359 36.2625 68.9542C36.169 69.4932 36.1254 70.0404 36.0298 70.5773C35.9218 71.1886 35.6311 71.6842 35.062 72.0002C34.6777 72.2129 34.3205 72.4711 33.9466 72.7003C33.3567 73.0617 32.8167 72.8015 32.7378 72.1097C32.5737 70.6496 32.4283 69.1855 32.2663 67.7254C31.9028 64.446 31.5456 61.1666 31.1655 57.8892C30.9246 55.8076 30.6836 53.7239 30.3638 51.6546C30.2288 50.7832 29.9255 49.9323 29.6285 49.0959C29.5039 48.7449 29.2276 48.4268 28.9597 48.1501C28.6378 47.8197 28.4114 47.8445 28.2494 48.274C27.8568 49.3087 27.3999 50.3433 27.2026 51.4213C26.6418 54.4797 26.0976 57.5464 25.7445 60.6338C25.5098 62.6762 25.6074 64.7578 25.57 66.8209C25.5368 68.6196 25.5285 70.4183 25.487 72.215C25.4724 72.8242 25.246 73.0101 24.6271 72.9977C22.9945 72.9646 21.3599 72.9213 19.7274 72.8738C19.2663 72.8593 19.0067 72.5991 18.9693 72.1427C18.9568 72.0023 18.9693 71.8619 18.9652 71.7194C18.9028 68.1694 18.9568 64.6133 18.7408 61.0716C18.556 58.0193 18.099 54.9774 17.2579 52.016C17.0626 51.3283 16.7968 50.6613 16.1404 50.0913C16.0407 51.2003 15.9203 52.2163 15.8663 53.2345C15.6336 57.6373 15.4031 62.0401 15.2058 66.445C15.1227 68.2871 15.1268 70.1354 15.0957 71.9796C15.0832 72.7788 14.6055 73.041 13.8786 72.7147C13.0581 72.3451 12.6344 71.7503 12.3353 70.9057C11.3467 68.1178 10.9001 65.2122 10.3103 62.3375C9.65393 59.1386 8.99967 55.9377 8.37657 52.7306C7.79916 49.7609 7.54369 46.7541 7.40868 43.737C7.1906 38.8116 7.24668 33.8863 7.552 28.9672C7.74308 25.8943 8.05256 22.8276 8.31011 19.7588C8.32257 19.6205 8.3288 19.4821 8.33711 19.3334C7.40245 19.1207 6.46572 18.9823 5.58092 18.6891C4.51541 18.3339 3.46237 17.9064 2.46333 17.4004C1.28359 16.8016 0.42994 15.8557 0.00415401 14.5754C0.00415401 14.1685 0.00415401 13.7617 0.00415401 13.3549L0 13.3507ZM13.5089 69.9454C13.6002 69.9372 13.6896 69.9289 13.7809 69.9206C13.7809 68.3098 13.7186 66.697 13.7934 65.0903C13.9783 61.1707 14.2005 57.2511 14.456 53.3356C14.6886 49.7774 15.0313 46.2296 15.9369 42.7622C16.7905 39.4931 17.7127 36.2509 19.2393 33.211C19.3058 33.0768 19.2726 32.8434 19.1999 32.6989C18.6619 31.6044 18.1489 30.4954 17.5424 29.438C16.5413 27.693 16.0137 25.8385 16.1259 23.8333C16.1986 22.5405 16.4499 21.256 16.4894 19.9633C16.5517 17.8713 16.5766 15.7731 16.4873 13.6832C16.4021 11.6801 16.0594 9.70167 15.2888 7.82861C14.1756 5.11917 12.0965 3.27501 9.70585 1.71791C9.63524 1.67248 9.53969 1.66422 9.37769 1.61259C9.45246 1.9616 9.47738 2.26104 9.57916 2.53157C9.96133 3.55587 10.356 4.57398 10.7672 5.58795C11.0642 6.319 10.7963 6.77746 10.0278 6.77333C9.38392 6.77127 8.80028 6.96539 8.33503 7.37841C7.76178 7.88437 7.21968 8.43369 6.7212 9.01192C5.78239 10.0982 4.71273 10.9841 3.34814 11.4921C3.11551 11.5789 2.88081 11.6925 2.68557 11.8432C1.44767 12.8035 0.745646 14.3854 2.49864 15.6967C3.42914 16.3927 4.45726 16.8945 5.57053 17.1877C6.73573 17.4954 7.92378 17.7164 9.10768 17.9539C9.67054 18.0675 9.91563 18.3236 9.86578 18.8233C9.68093 20.7377 9.44 22.65 9.33199 24.5685C9.09521 28.7669 8.87713 32.9673 8.74835 37.1699C8.67981 39.4023 8.78574 41.6429 8.86259 43.8774C8.96021 46.7396 9.22607 49.5916 9.7744 52.4043C10.6488 56.8835 11.5461 61.3566 12.4704 65.8255C12.757 67.2112 13.162 68.5721 13.513 69.9454H13.5089ZM34.0484 70.852C34.5822 70.7715 34.5614 70.3584 34.6092 70.0198C35.0391 67.0336 35.5127 64.0536 35.8658 61.0592C36.2895 57.4659 36.3393 53.8499 36.1711 50.2359C35.9634 45.7835 35.28 41.4075 33.9528 37.141C33.3007 35.0428 32.4408 33.0541 30.7812 31.5259C29.0719 29.9523 27.08 29.2708 24.7558 29.7788C23.0319 30.1546 22.0038 31.3834 21.1481 32.7918C21.0484 32.9549 21.0359 33.2317 21.092 33.4217C21.4679 34.6607 21.9498 35.873 22.2572 37.1286C23.0942 40.5608 23.2646 44.0901 23.5512 47.5905C23.7381 49.8766 23.6467 52.1854 23.6737 54.4838C23.7277 59.1552 23.2646 63.7914 22.6747 68.4172C22.5459 69.4209 22.4421 70.4287 22.3195 71.4984H24.1286C24.1286 70.0879 24.1224 68.6816 24.1286 67.2773C24.139 65.4001 24.0517 63.5146 24.2054 61.6478C24.5128 57.8913 25.0632 54.1617 25.9564 50.4961C26.2098 49.4573 26.5774 48.4268 27.0385 47.4604C27.5411 46.4072 28.6108 46.1655 29.5787 46.8284C30.0044 47.1196 30.3721 47.5471 30.6504 47.9828C31.3026 48.9989 31.612 50.1574 31.7761 51.3387C32.069 53.4451 32.3265 55.5556 32.5716 57.6662C32.9496 60.927 33.3069 64.192 33.6704 67.4549C33.7971 68.5845 33.9196 69.7162 34.0421 70.8499L34.0484 70.852ZM20.1532 34.9044C20.1117 34.9106 20.068 34.9168 20.0265 34.923C19.9247 35.1502 19.8167 35.3732 19.7233 35.6024C18.0783 39.5675 17.1125 43.7122 16.4125 47.9292C16.3398 48.3711 16.3523 48.6809 16.8445 48.8832C17.1145 48.9948 17.3804 49.2529 17.5237 49.5131C17.9453 50.2731 18.4189 51.033 18.6702 51.8549C19.5571 54.7523 19.9102 57.7612 20.1553 60.7618C20.3775 63.4837 20.3256 66.2282 20.3921 68.9624C20.4087 69.6811 20.4066 70.4018 20.4357 71.1205C20.4398 71.2237 20.5603 71.3229 20.6268 71.424C20.7265 71.3332 20.8448 71.2568 20.9175 71.1473C20.9632 71.0792 20.9362 70.9656 20.9466 70.8706C21.1169 69.3011 21.2478 67.7254 21.4659 66.1621C21.9643 62.5957 22.2219 59.0168 22.2551 55.4152C22.2884 51.9272 22.3465 48.4413 21.8875 44.9719C21.5739 42.6032 21.3018 40.2262 20.9321 37.8658C20.7763 36.8622 20.4211 35.8895 20.1574 34.9024L20.1532 34.9044Z" fill="#A44819" fill-opacity="0.5"/>
</g>
<defs>
<clipPath id="clip0_524_4806">
<rect width="171" height="73" fill="white"/>
</clipPath>
</defs>
</svg>
